<?xml version="1.0" encoding="UTF-8"?>
<svg width="1024" height="1024" viewBox="0 0 1024 1024" xmlns="http://www.w3.org/2000/svg" role="img" aria-label="Símbolo ORA">
  <path d="M 337.21 113.48 L 296.34 128.54 L 264.07 144.67 L 225.34 169.41 L 194.15 195.23 L 165.11 225.34 L 136.07 262.99 L 117.78 293.11 L 100.57 328.61 L 88.74 360.87 L 75.83 413.58 L 70.45 458.76 L 70.45 513.61 L 75.83 560.94 L 84.44 599.66 L 97.34 640.54 L 111.33 673.88 L 132.84 714.76 L 152.20 744.87 L 179.09 779.29 L 221.04 821.24 L 247.93 842.76 L 288.81 869.65 L 324.30 887.93 L 360.87 902.99 L 409.28 916.97 L 443.70 923.43 L 486.72 927.73 L 526.52 927.73 L 572.77 923.43 L 620.10 913.75 L 655.60 902.99 L 698.62 885.78 L 734.12 867.50 L 763.16 849.21 L 815.87 807.26 L 836.30 786.82 L 864.27 753.48 L 885.78 722.29 L 911.60 674.96 L 935.26 612.57 L 943.87 578.15 L 950.32 539.43 L 953.55 464.13 L 949.24 411.43 L 943.87 380.24 L 937.41 371.63 L 929.88 368.40 L 898.69 368.40 L 867.50 363.03 L 852.44 357.65 L 819.09 339.36 L 792.20 316.77 L 772.84 296.34 L 709.38 214.59 L 680.34 183.39 L 646.99 156.50 L 625.48 142.52 L 596.44 127.46 L 550.18 110.25 L 520.07 102.72 L 481.34 97.34 L 420.03 97.34 L 386.69 101.65 Z
    M 384.54 258.69 L 404.97 252.24 L 431.87 246.86 L 479.19 244.71 L 513.61 250.08 L 553.41 264.07 L 591.06 285.58 L 623.33 311.39 L 656.67 345.82 L 711.53 413.58 L 734.12 435.09 L 765.31 453.38 L 785.75 459.83 L 804.03 461.98 L 810.49 467.36 L 812.64 495.33 L 807.26 548.03 L 794.35 593.21 L 776.07 633.01 L 747.03 676.03 L 719.06 706.15 L 688.94 730.89 L 656.67 751.33 L 624.40 766.39 L 599.66 774.99 L 574.92 781.45 L 541.58 786.82 L 489.95 787.90 L 461.98 784.67 L 431.87 778.22 L 387.76 763.16 L 351.19 743.80 L 322.15 723.36 L 283.43 685.71 L 252.24 641.61 L 241.48 621.18 L 229.65 592.13 L 216.74 538.35 L 215.66 482.42 L 218.89 457.68 L 227.50 423.26 L 241.48 388.84 L 254.39 365.18 L 282.35 327.53 L 300.64 309.24 L 326.45 288.81 L 349.04 274.82 Z"
        fill="#00C8F2"
        fill-rule="evenodd"/>
</svg>
